<svg width="717" height="190" viewBox="0 0 717 190" fill="none" xmlns="http://www.w3.org/2000/svg">
<path d="M447.326 63.1756C449.878 59.2845 452.458 55.221 455.069 50.9851C457.684 46.7443 460.049 42.6808 462.206 38.7946C464.363 34.9084 466.107 31.4064 467.481 28.3033C468.638 26.0327 469.341 23.5582 469.55 21.0185C469.662 17.4589 468.493 13.9772 466.255 11.207C463.891 8.4161 460.932 6.18957 457.596 4.69061C453.704 2.91388 449.58 1.6999 445.346 1.08517C440.627 0.362442 435.86 0.00183029 431.087 0.00649213C415.029 -0.119933 399.009 1.6005 383.344 5.13391C369.655 8.24236 356.295 12.6561 343.448 18.3145C332.352 23.1839 321.756 29.1225 311.812 36.0462C303.664 41.7203 295.953 47.9982 288.746 54.827C283.47 59.7168 278.743 65.167 274.649 71.081C271.477 75.9474 269.891 79.4494 269.891 81.5871C269.826 84.1544 270.639 86.667 272.196 88.7093C273.547 90.5523 275.268 92.0925 277.25 93.2309C278.758 94.1797 280.523 94.639 282.303 94.546C283.781 94.3834 284.608 93.6003 284.608 92.167C284.608 89.4038 286.337 85.3994 289.81 80.1242C294.12 73.8762 299.072 68.0967 304.586 62.8801C311.814 55.9549 319.549 49.5784 327.726 43.8038C347.716 29.6157 370.131 19.1997 393.865 13.0688C407.024 9.69719 420.562 8.03837 434.146 8.13352C437.575 8.00265 441 8.47273 444.267 9.5225C446.341 10.1934 448.212 11.3778 449.705 12.9654C450.831 14.2406 451.574 15.808 451.848 17.487C452.099 19.0061 452.227 20.5428 452.232 22.0824C452.046 24.8803 451.319 27.6154 450.089 30.1356C448.443 33.8723 446.578 37.5086 444.504 41.0258C442.199 44.9662 439.642 49.0248 436.835 53.2016C434.027 57.3784 431.254 61.3187 428.516 65.0227C417.549 66.3356 406.687 68.4093 396.008 71.2288C387.631 73.4 379.493 76.4047 371.715 80.1981C366.031 82.8712 360.868 86.5336 356.466 91.0144C352.939 94.8464 351.176 98.7523 351.176 102.732C351.123 104.946 351.632 107.137 352.654 109.101C353.404 110.633 354.502 111.969 355.86 113.002C356.305 113.369 356.82 113.641 357.374 113.802C357.928 113.962 358.509 114.006 359.081 113.933C360.066 113.726 360.559 112.854 360.559 111.317C360.559 109.84 361.859 107.623 364.46 104.801C367.885 101.32 371.692 98.2365 375.808 95.6099C381.639 91.8133 387.773 88.5021 394.146 85.7097C402.316 82.1033 410.779 79.2015 419.443 77.0359C413.306 85.0152 407.149 92.8615 400.972 100.575C394.796 108.288 389.225 115.775 384.26 123.035C379.698 129.62 375.676 136.563 372.232 143.796C369.389 149.497 367.821 155.75 367.637 162.118C367.618 164.661 367.981 167.191 368.716 169.625C369.342 171.802 370.299 173.87 371.553 175.757C372.618 177.393 374 178.799 375.616 179.895C377.009 180.86 378.665 181.375 380.359 181.372C380.809 181.392 381.258 181.321 381.679 181.163C382.1 181.006 382.486 180.765 382.812 180.456C383.433 179.82 383.858 179.021 384.039 178.151C384.252 177.144 384.381 176.121 384.423 175.092V171.871C384.423 166.354 386.186 159.813 389.713 152.248C393.706 143.828 398.212 135.662 403.204 127.793C408.661 119.065 414.715 109.997 421.364 100.59C428.013 91.1819 434.5 81.8826 440.824 72.6917C451.477 71.0999 462.237 70.3293 473.007 70.3865C475.258 70.3325 477.505 70.6164 479.672 71.2288C481.179 71.6805 482.659 72.2182 484.105 72.8394C484.864 73.2185 485.655 73.53 486.469 73.7703C486.942 73.859 487.163 73.46 487.163 72.5439C487.117 69.8779 486.017 67.3386 484.105 65.4808C482.056 63.3431 478.938 62.2694 474.751 62.2595C465.048 62.2595 455.901 62.5698 447.311 63.1904L447.326 63.1756Z" fill="#F748A7"/>
<path d="M552.845 94.6789C550.136 98.304 547.096 102.313 543.727 106.707C540.358 111.1 536.783 115.573 533 120.124C529.217 124.675 525.567 128.812 522.05 132.536C519.022 135.796 515.794 138.866 512.387 141.727C509.431 144.14 507.107 145.342 505.412 145.332C503.063 145.332 501.999 144.209 502.191 141.963C502.641 139.019 503.644 136.187 505.146 133.615C506.86 130.246 509.018 126.591 511.618 122.651C514.234 118.661 516.775 114.967 519.287 111.539C521.799 108.111 523.927 105.2 525.715 102.791C526.78 101.556 527.684 100.191 528.404 98.7276C528.404 98.3287 528.094 97.8854 527.488 97.4273C526.76 96.9047 525.989 96.445 525.183 96.0531C524.267 95.595 523.292 95.1665 522.228 94.7528C521.272 94.3593 520.283 94.0527 519.273 93.8366C520.322 91.144 520.892 88.2885 520.957 85.3993C520.981 82.9113 520.698 80.4299 520.115 78.0111C519.625 75.9099 518.715 73.9295 517.44 72.1892C516.177 70.5243 514.515 69.2033 512.608 68.3473C510.272 67.3666 507.753 66.8981 505.22 66.9731C499.479 66.957 493.794 68.103 488.508 70.3421C483.14 72.6317 478.113 75.6498 473.569 79.3114C468.871 83.0963 464.604 87.3877 460.847 92.1078C457.169 96.7032 453.886 101.602 451.035 106.751C448.462 111.421 446.363 116.336 444.77 121.424C443.4 125.581 442.653 129.918 442.553 134.294C442.438 138.174 443.117 142.035 444.548 145.643C445.704 148.447 447.453 150.967 449.676 153.031C451.643 154.846 453.968 156.23 456.502 157.094C458.715 157.876 461.041 158.29 463.388 158.321C466.389 158.318 469.332 157.495 471.899 155.942C474.479 154.488 476.879 152.737 479.051 150.726C481.492 148.377 483.654 145.754 485.494 142.909C485.166 145.521 485.321 148.17 485.952 150.726C486.502 152.742 487.59 154.57 489.099 156.016C490.68 157.612 493.207 158.395 496.679 158.395C499.339 158.395 502.555 157.016 506.328 154.257C510.619 151.058 514.646 147.52 518.371 143.677C522.617 139.392 526.981 134.565 531.463 129.197C535.945 123.828 540.186 118.562 544.186 113.401C548.175 108.249 551.805 103.422 555.076 98.9197C558.346 94.4178 560.898 90.8912 562.73 88.3398C562.92 88.0922 563.058 87.809 563.137 87.507C563.216 87.205 563.233 86.8902 563.188 86.5814C563.156 86.3338 563.063 86.0982 562.915 85.8967C562.768 85.6951 562.572 85.5342 562.346 85.4289C561.811 85.2166 561.225 85.1652 560.661 85.2811C560.299 85.3515 559.955 85.4969 559.652 85.7082C559.349 85.9194 559.094 86.1917 558.903 86.5075C557.573 88.3201 555.554 91.0439 552.845 94.6789ZM458.527 145.259C457.731 140.747 457.937 136.116 459.133 131.694C460.588 125.619 462.668 119.712 465.339 114.066C468.199 107.839 471.705 101.931 475.8 96.4373C479.576 91.2764 484.098 86.705 489.217 82.8725C493.49 79.4615 498.764 77.5461 504.23 77.42C505.138 77.3509 506.048 77.5205 506.869 77.9119C507.691 78.3034 508.396 78.903 508.914 79.6513C509.958 81.3818 510.471 83.3801 510.392 85.3993C510.407 88.7115 509.675 91.9845 508.249 94.9744C506.935 97.7918 505.372 100.487 503.58 103.028C502.169 105.041 500.629 106.961 498.97 108.776C498.162 109.514 497.465 110.365 496.901 111.302C497.13 111.92 497.471 112.491 497.906 112.987C498.596 113.946 499.335 114.869 500.122 115.75C497.374 119.69 494.488 123.754 491.463 127.941C488.633 131.858 485.589 135.617 482.346 139.2C479.626 142.268 476.596 145.046 473.303 147.49C470.906 149.423 467.957 150.545 464.881 150.696C461.438 150.726 459.339 148.894 458.527 145.259Z" fill="#F748A7"/>
<path d="M596.139 154.228C600.501 151.06 604.579 147.52 608.33 143.648C612.576 139.363 616.89 134.536 621.274 129.167C625.658 123.798 629.795 118.533 633.686 113.371C637.568 108.219 641.094 103.392 644.266 98.8903C647.438 94.3884 649.94 90.8617 651.773 88.3104C651.963 88.0628 652.101 87.7796 652.18 87.4776C652.258 87.1755 652.276 86.8608 652.231 86.552C652.199 86.3043 652.105 86.0688 651.958 85.8672C651.811 85.6657 651.615 85.5047 651.388 85.3994C650.853 85.1871 650.268 85.1358 649.704 85.2516C649.341 85.322 648.998 85.4675 648.695 85.6787C648.392 85.8899 648.137 86.1622 647.945 86.4781C646.616 88.3104 644.596 91.044 641.887 94.679C639.178 98.314 636.139 102.323 632.77 106.707C629.401 111.101 625.825 115.573 622.042 120.124C618.26 124.675 614.605 128.812 611.078 132.536C608.048 135.8 604.816 138.87 601.4 141.727C598.445 144.141 596.12 145.342 594.425 145.333C592.386 145.333 591.263 144.668 591.056 143.338C590.982 141.44 591.432 139.559 592.357 137.9C593.741 135.086 595.357 132.392 597.189 129.847C599.336 126.783 601.661 123.518 604.163 120.05C606.66 116.563 609.216 112.972 611.817 109.234C614.418 105.495 616.797 101.846 618.954 98.2697C620.958 94.9525 622.721 91.4958 624.229 87.9262C625.494 85.1822 626.197 82.213 626.298 79.1933C626.493 76.0141 625.692 72.8532 624.008 70.1502C622.471 68.0026 619.969 66.9289 616.501 66.9289C612.809 67.0328 609.2 68.048 605.995 69.8842C602.042 72.031 598.319 74.5759 594.883 77.4792C591.189 80.559 587.662 83.8342 584.318 87.2908C580.939 90.7682 577.925 94.0387 575.275 97.1023C572.625 100.166 570.453 102.693 568.759 104.683C567.949 105.79 566.995 106.784 565.922 107.638C565.611 107.638 566.055 106.515 567.222 104.254C568.389 101.993 569.778 99.3336 571.359 96.2157C572.94 93.0979 574.403 89.8323 575.792 86.4042C576.991 83.5948 577.667 80.5903 577.787 77.5384C577.865 75.3625 577.091 73.2421 575.63 71.6278C574.32 70.1749 572.732 68.9992 570.96 68.1701C569.521 67.471 567.961 67.0546 566.365 66.9437C564.991 66.9437 564.296 67.0767 564.296 67.4904C564.034 72.0115 562.968 76.4497 561.149 80.5971C558.812 86.4987 556.178 92.2787 553.258 97.915C550.096 104.092 546.673 110.352 542.989 116.696C539.304 123.04 535.871 128.832 532.689 134.073C529.527 139.235 526.897 143.476 524.799 146.795C523.577 148.5 522.509 150.31 521.607 152.204C521.7 152.747 521.934 153.257 522.287 153.681C522.872 154.468 523.569 155.165 524.356 155.75C525.344 156.5 526.427 157.116 527.577 157.582C528.841 158.104 530.198 158.365 531.566 158.351C532.379 158.351 533.842 157.198 535.999 154.908C538.157 152.617 540.654 149.559 543.668 145.776C546.683 141.993 550.052 137.678 553.775 132.832C557.499 127.985 561.341 123.02 565.271 117.952C569.202 112.884 573.192 107.948 577.226 103.087C581.26 98.2253 585.131 93.9254 588.796 90.1426C591.932 86.8449 595.315 83.792 598.917 81.0108C601.971 78.7254 604.527 77.5778 606.586 77.5679C609.128 77.5679 610.074 78.617 609.409 80.7153C608.261 83.6851 606.688 86.4724 604.739 88.9901C602.286 92.4182 599.272 96.4029 595.696 100.944C592.12 105.485 588.697 110.184 585.426 115.041C582.269 119.712 579.454 124.606 577.004 129.684C574.808 133.962 573.601 138.679 573.472 143.485C573.322 146.047 573.741 148.611 574.699 150.992C575.496 152.951 576.759 154.686 578.378 156.045C580.511 157.712 583.184 158.532 585.885 158.351C588.84 158.365 592.253 156.991 596.139 154.228Z" fill="#F748A7"/>
<path d="M708.248 92.2999C706.465 94.7528 704.421 97.5357 702.116 100.649C699.811 103.761 697.348 107.057 694.728 110.534C692.068 114.021 689.359 117.395 686.601 120.656C683.852 123.921 681.163 126.995 678.562 129.847C676.274 132.423 673.805 134.833 671.174 137.058C671.698 135.328 672.084 133.559 672.327 131.768C672.574 129.966 672.703 128.149 672.711 126.33C672.708 121.933 672.297 117.545 671.484 113.223C670.657 108.879 669.77 104.49 668.795 100.043C667.82 95.5951 666.933 91.1769 666.12 86.6258C665.297 82.1264 664.887 77.5612 664.894 72.9872C664.833 70.1693 665.462 67.3793 666.726 64.8601C667.866 62.6472 669.201 60.5406 670.716 58.5654C672.194 56.7331 673.464 55.0781 674.691 53.5857C675.756 52.4845 676.409 51.0491 676.538 49.5222C676.508 49.0685 676.367 48.6292 676.127 48.2427C675.887 47.8563 675.557 47.5345 675.164 47.3058C674.121 46.6096 672.884 46.2629 671.632 46.3157C668.528 46.3399 665.458 46.962 662.589 48.148C656.443 50.6135 651.366 55.1721 648.256 61.0183C646.687 63.9437 645.874 67.2148 645.891 70.5343C646 74.5721 646.434 78.5946 647.192 82.5623C648.049 87.6158 648.98 93.0831 649.94 98.9641C650.901 104.845 651.684 110.785 652.245 116.696C652.784 122.1 652.784 127.545 652.245 132.95C651.937 137.14 650.624 141.195 648.418 144.771C646.364 147.844 643.158 149.366 638.755 149.366C634.351 149.366 631.366 148.229 629.637 145.924C627.905 143.771 626.961 141.091 626.963 138.328C627.035 137.158 626.713 135.998 626.047 135.033C625.83 134.703 625.533 134.433 625.185 134.247C624.836 134.062 624.447 133.966 624.052 133.969C623.626 134.04 623.223 134.21 622.876 134.467C622.529 134.724 622.249 135.06 622.057 135.447C621.348 136.764 621.03 138.256 621.141 139.747C621.16 141.991 621.545 144.217 622.279 146.337C623.036 148.53 624.238 150.542 625.81 152.248C627.516 154.079 629.577 155.542 631.869 156.548C634.624 157.731 637.603 158.306 640.602 158.232H642.892C648.091 158.142 653.179 156.717 657.668 154.095C662.979 151.139 667.936 147.59 672.445 143.515C677.434 139.028 682.096 134.188 686.394 129.034C690.807 123.793 694.925 118.572 698.747 113.371C702.569 108.17 705.992 103.343 709.016 98.8902C712.031 94.3982 714.459 90.8715 716.301 88.3103C716.49 88.0633 716.621 87.7772 716.685 87.473C716.749 87.1687 716.744 86.854 716.671 86.5519C716.618 86.3017 716.508 86.0672 716.349 85.8671C716.19 85.6669 715.986 85.5068 715.754 85.3993C715.244 85.1897 714.683 85.1382 714.144 85.2516C713.795 85.3337 713.467 85.4844 713.178 85.695C712.889 85.9056 712.644 86.1718 712.459 86.478C711.445 87.936 710.041 89.8766 708.248 92.2999Z" fill="#F748A7"/>
<path d="M281.402 189.144C294.435 189.144 303.714 182.347 311.738 163.256L351.191 68.9975H341.542L308.709 150.401L270.866 68.9975H260.7L304.394 159.503C297.612 175.388 291.361 180.929 281.904 180.929C276.528 181.132 271.188 179.963 266.389 177.53L263.345 185.214C268.987 187.88 275.162 189.225 281.402 189.144Z" fill="black"/>
<path d="M236.304 29.5593H227.557V159.872H236.304V29.5593Z" fill="black"/>
<path d="M8.74763 29.722H0V160.035H8.74763V29.722Z" fill="black"/>
<path d="M85.585 29.5593H76.8374V159.872H85.585V29.5593Z" fill="black"/>
<path d="M1.05724e-07 90.1426L0 99.0084L85.7032 99.0084L85.7032 90.1426L1.05724e-07 90.1426Z" fill="black"/>
<path d="M156.51 68.9557L156.51 68.9557C147.355 68.9794 138.413 71.7163 130.813 76.8203C123.213 81.9243 117.296 89.1665 113.811 97.6318C110.325 106.097 109.427 115.406 111.23 124.381C113.032 133.357 117.455 141.597 123.939 148.059C130.423 154.522 138.677 158.918 147.658 160.692C156.64 162.466 165.945 161.537 174.399 158.024C182.853 154.511 190.076 148.571 195.156 140.955C200.235 133.338 202.943 124.387 202.937 115.233V115.232C202.913 102.94 198.009 91.1605 189.303 82.4829C180.597 73.8053 168.802 68.9397 156.51 68.9557ZM156.511 155.761L156.011 155.76V155.776C148.175 155.66 140.537 153.275 134.025 148.904C127.373 144.44 122.194 138.105 119.141 130.699C116.088 123.293 115.298 115.148 116.871 107.293C118.445 99.4387 122.31 92.2265 127.98 86.5676C133.65 80.9086 140.87 77.0569 148.727 75.4988C156.585 73.9408 164.728 74.7463 172.128 77.8136C179.528 80.8809 185.854 86.0725 190.305 92.7325C194.756 99.3924 197.134 107.222 197.138 115.232C197.122 125.993 192.834 136.308 185.216 143.908C177.597 151.508 167.272 155.771 156.511 155.761Z" fill="black" stroke="black"/>
<path d="M187.329 120.578C186.467 121.162 185.501 121.573 184.483 121.789C185.258 122.484 185.89 123.324 186.343 124.261C188.003 127.756 186.555 131.376 188.715 132.625C186.555 131.376 184.146 134.435 180.288 134.747C179.245 134.827 178.196 134.695 177.205 134.36C177.545 135.35 177.677 136.4 177.592 137.443C177.28 141.301 174.221 143.71 175.47 145.87C174.221 143.71 170.601 145.158 167.106 143.498C166.169 143.045 165.329 142.413 164.634 141.638C164.418 142.656 164.007 143.622 163.423 144.484C161.226 147.667 157.369 148.229 157.369 150.726C157.369 148.229 153.511 147.667 151.314 144.484C150.731 143.622 150.32 142.656 150.103 141.638C149.408 142.413 148.569 143.045 147.632 143.498C144.136 145.158 140.516 143.71 139.268 145.87C140.516 143.71 137.457 141.301 137.145 137.443C137.065 136.4 137.197 135.351 137.532 134.36C136.542 134.7 135.492 134.832 134.449 134.747C130.592 134.435 128.182 131.376 126.023 132.625C128.182 131.376 126.734 127.756 128.394 124.261C128.848 123.324 129.48 122.484 130.255 121.789C129.237 121.573 128.27 121.162 127.408 120.578C124.225 118.381 123.663 114.524 121.167 114.524C123.663 114.524 124.225 110.666 127.408 108.469C128.27 107.886 129.237 107.475 130.255 107.258C129.48 106.563 128.848 105.724 128.394 104.787C126.734 101.291 128.182 97.6709 126.023 96.4226C128.182 97.6709 130.592 94.6125 134.449 94.3004C135.492 94.2205 136.541 94.3521 137.532 94.6874C137.193 93.6971 137.061 92.6474 137.145 91.6039C137.457 87.7465 140.516 85.3372 139.268 83.1776C140.516 85.3372 144.136 83.8891 147.632 85.5494C148.569 86.0027 149.408 86.6346 150.103 87.4095C150.32 86.3915 150.731 85.425 151.314 84.5632C153.511 81.3799 157.369 80.8182 157.369 78.3215C157.369 80.8182 161.226 81.3799 163.423 84.5632C164.007 85.425 164.418 86.3915 164.634 87.4095C165.329 86.6346 166.169 86.0027 167.106 85.5494C170.601 83.8891 174.221 85.3372 175.47 83.1776C174.221 85.3372 177.28 87.7465 177.592 91.6039C177.672 92.6473 177.54 93.6961 177.205 94.6874C178.195 94.3476 179.245 94.2158 180.288 94.3004C184.146 94.6125 186.555 97.6709 188.715 96.4226C186.555 97.6709 188.003 101.291 186.343 104.787C185.89 105.724 185.258 106.563 184.483 107.258C185.501 107.475 186.467 107.886 187.329 108.469C190.512 110.666 191.074 114.524 193.571 114.524C191.074 114.524 190.512 118.381 187.329 120.578Z" fill="#F748A7"/>
<path d="M157.369 140.739C171.847 140.739 183.584 129.002 183.584 114.524C183.584 100.045 171.847 88.3084 157.369 88.3084C142.89 88.3084 131.153 100.045 131.153 114.524C131.153 129.002 142.89 140.739 157.369 140.739Z" fill="#FF82C6"/>
<path d="M179.402 100.343L171.662 114.524L163.498 129.504L157.369 140.739L151.239 129.504L143.075 114.524L135.335 100.343C135.498 100.068 135.673 99.8059 135.86 99.5437H178.878C179.065 99.8059 179.24 100.068 179.402 100.343Z" fill="#FF99D0"/>
<path d="M179.402 128.705C179.24 128.98 179.065 129.242 178.878 129.504H135.86C135.673 129.242 135.498 128.98 135.335 128.705L157.369 88.3084L179.402 128.705Z" fill="#FFCFE9"/>
</svg>
