<svg width="500" height="501" viewBox="0 0 500 501" fill="none" xmlns="http://www.w3.org/2000/svg">
<path d="M456.897 292.714C450.945 296.743 444.271 299.583 437.241 301.076C442.593 305.876 446.956 311.674 450.086 318.145C461.552 342.283 451.552 367.283 466.466 375.904C451.552 367.283 434.914 388.404 408.276 390.559C401.071 391.111 393.828 390.202 386.983 387.887C389.329 394.725 390.239 401.974 389.655 409.18C387.5 435.818 366.379 452.456 375 467.37C366.379 452.456 341.379 462.456 317.241 450.99C310.77 447.86 304.972 443.497 300.172 438.145C298.679 445.175 295.839 451.849 291.81 457.801C276.638 479.783 250 483.663 250 500.904C250 483.663 223.362 479.783 208.19 457.801C204.161 451.849 201.321 445.175 199.828 438.145C195.028 443.497 189.23 447.86 182.759 450.99C158.621 462.456 133.621 452.456 125 467.37C133.621 452.456 112.5 435.818 110.345 409.18C109.793 401.975 110.702 394.732 113.017 387.887C106.179 390.233 98.9301 391.143 91.7241 390.559C65.0862 388.404 48.4483 367.283 33.5345 375.904C48.4483 367.283 38.4483 342.283 49.9138 318.145C53.0442 311.674 57.4074 305.876 62.7586 301.076C55.729 299.583 49.0547 296.743 43.1034 292.714C21.1207 277.542 17.2414 250.904 0 250.904C17.2414 250.904 21.1207 224.266 43.1034 209.094C49.0547 205.065 55.729 202.225 62.7586 200.732C57.4074 195.932 53.0442 190.134 49.9138 183.663C38.4483 159.525 48.4483 134.525 33.5345 125.904C48.4483 134.525 65.0862 113.404 91.7241 111.249C98.9294 110.697 106.172 111.606 113.017 113.921C110.671 107.083 109.761 99.8342 110.345 92.6282C112.5 65.9903 133.621 49.3523 125 34.4385C133.621 49.3523 158.621 39.3523 182.759 50.8178C189.23 53.9483 195.028 58.3114 199.828 63.6627C201.321 56.633 204.161 49.9587 208.19 44.0075C223.362 22.0247 250 18.1454 250 0.904053C250 18.1454 276.638 22.0247 291.81 44.0075C295.839 49.9587 298.679 56.633 300.172 63.6627C304.972 58.3114 310.77 53.9483 317.241 50.8178C341.379 39.3523 366.379 49.3523 375 34.4385C366.379 49.3523 387.5 65.9903 389.655 92.6282C390.207 99.8334 389.298 107.076 386.983 113.921C393.821 111.575 401.07 110.665 408.276 111.249C434.914 113.404 451.552 134.525 466.466 125.904C451.552 134.525 461.552 159.525 450.086 183.663C446.956 190.134 442.593 195.932 437.241 200.732C444.271 202.225 450.945 205.065 456.897 209.094C478.879 224.266 482.759 250.904 500 250.904C482.759 250.904 478.879 277.542 456.897 292.714Z" fill="#F748A7"/>
<path d="M249.999 431.939C349.982 431.939 431.034 350.887 431.034 250.905C431.034 150.922 349.982 69.8704 249.999 69.8704C150.017 69.8704 68.9647 150.922 68.9647 250.905C68.9647 350.887 150.017 431.939 249.999 431.939Z" fill="#FF82C6"/>
<path d="M402.155 152.975L348.707 250.906L292.328 354.354L250 431.94L207.673 354.354L151.293 250.906L97.845 152.975C98.9657 151.078 100.173 149.268 101.466 147.458H398.535C399.828 149.268 401.035 151.078 402.155 152.975Z" fill="#FF99D0"/>
<path d="M402.155 348.836C401.035 350.732 399.828 352.543 398.535 354.353H101.466C100.173 352.543 98.9657 350.732 97.845 348.836L250 69.8704L402.155 348.836Z" fill="#FFCFE9"/>
</svg>
